<?xml version="1.0" encoding="UTF-8"?>
<!-- Created with Inkscape (http://www.inkscape.org/) -->
<svg width="102.74mm" height="100.01mm" version="1.1" viewBox="0 0 102.74 100.01" xmlns="http://www.w3.org/2000/svg">
 <g transform="translate(-55.562 -92.604)">
  <circle cx="109.36" cy="143.66" r="48.948" fill="#2a2183" stroke-width="0"/>
  <circle cx="104.51" cy="141.55" r="48.948" fill="#5976ff" stroke-width="0"/>
  <path d="m79.375 108.48h12.7a5.8734 5.8734 35.783 0 1 5.572 4.0161 5.8044 5.8044 35.29 0 0 5.5405 3.9214h33.867a4.2333 4.2333 45 0 1 4.2333 4.2333v44.45a4.2333 4.2333 135 0 1-4.2333 4.2333l-57.679 1e-5a4.2333 4.2333 45 0 1-4.2333-4.2333v-52.388a4.2333 4.2333 135 0 1 4.2333-4.2333z" fill="#242f91"/>
  <path d="m75.671 105.83h12.7a5.8734 5.8734 35.783 0 1 5.572 4.0161 5.8044 5.8044 35.29 0 0 5.5405 3.9214h33.867a4.2333 4.2333 45 0 1 4.2333 4.2333v44.45a4.2333 4.2333 135 0 1-4.2333 4.2333l-57.679 1e-5a4.2333 4.2333 45 0 1-4.2333-4.2333v-52.388a4.2333 4.2333 135 0 1 4.2333-4.2333z" fill="#ffc67f"/>
  <path d="m82.021 119.06h36.512a4.2333 4.2333 45 0 1 4.2333 4.2333v44.45a4.2333 4.2333 135 0 1-4.2333 4.2333h-36.512a4.2333 4.2333 45 0 1-4.2333-4.2333v-44.45a4.2333 4.2333 135 0 1 4.2333-4.2333z" fill="#d7e2ff"/>
  <path d="m87.312 121.71h36.512a4.2333 4.2333 45 0 1 4.2333 4.2333v44.45a4.2333 4.2333 135 0 1-4.2333 4.2333h-36.512a4.2333 4.2333 45 0 1-4.2333-4.2333v-44.45a4.2333 4.2333 135 0 1 4.2333-4.2333z" fill="#a781ff"/>
  <path d="m92.604 124.35h36.513a4.2333 4.2333 45 0 1 4.2333 4.2333v44.45a4.2333 4.2333 135 0 1-4.2333 4.2333h-36.513a4.2333 4.2333 45 0 1-4.2333-4.2333v-44.45a4.2333 4.2333 135 0 1 4.2333-4.2333z" fill="#fffafa"/>
  <g fill="#c2c5ff">
   <path x="95.250008" y="132.29167" width="31.75" height="8.5479593" d="m97.102 132.29h28.046a1.8521 1.8521 45 0 1 1.8521 1.8521v4.8438a1.8521 1.8521 135 0 1-1.8521 1.8521h-28.046a1.8521 1.8521 45 0 1-1.8521-1.8521v-4.8438a1.8521 1.8521 135 0 1 1.8521-1.8521z"/>
   <path x="95.250008" y="146.53825" width="31.75" height="8.5479593" d="m97.102 146.54h28.046a1.8521 1.8521 45 0 1 1.8521 1.8521v4.8438a1.8521 1.8521 135 0 1-1.8521 1.8521h-28.046a1.8521 1.8521 45 0 1-1.8521-1.8521v-4.8438a1.8521 1.8521 135 0 1 1.8521-1.8521z"/>
   <path x="95.25" y="160.78487" width="18.520842" height="8.5479593" d="m97.102 160.78h14.817a1.8521 1.8521 45 0 1 1.8521 1.8521v4.8438a1.8521 1.8521 135 0 1-1.8521 1.8521h-14.817a1.8521 1.8521 45 0 1-1.8521-1.8521v-4.8438a1.8521 1.8521 135 0 1 1.8521-1.8521z"/>
  </g>
  <path x="116.41666" y="158.75" width="10.583339" height="10.582826" d="m121.97 158.75a5.2983 5.2983 47.862 0 1 5.0271 5.5562 5.298 5.298 137.87 0 1-5.5562 5.0266 5.2983 5.2983 47.862 0 1-5.0271-5.5562 5.298 5.298 137.87 0 1 5.5562-5.0266z" fill="#ffcab2"/>
 </g>
</svg>
