<?xml version="1.0" encoding="UTF-8"?>
<!-- Created with Inkscape (http://www.inkscape.org/) -->
<svg width="102.74mm" height="100.01mm" version="1.1" viewBox="0 0 102.74 100.01" xmlns="http://www.w3.org/2000/svg">
 <g transform="translate(-57.514 -74.879)">
  <g>
   <circle cx="111.31" cy="125.94" r="48.948" fill="#2a2183" stroke-width="0"/>
   <circle cx="106.46" cy="123.83" r="48.948" fill="#d45e5e" stroke-width="0"/>
   <path d="m79.375 89.958h45.508a4.2333 4.2333 45 0 1 4.2333 4.2333v55.033a4.2333 4.2333 135 0 1-4.2333 4.2333h-45.508a4.2333 4.2333 45 0 1-4.2333-4.2333v-55.033a4.2333 4.2333 135 0 1 4.2333-4.2333z" fill="#75284b"/>
   <path d="m89.958 97.896h45.508a4.2333 4.2333 45 0 1 4.2333 4.2333v55.033a4.2333 4.2333 135 0 1-4.2333 4.2333h-45.508a4.2333 4.2333 45 0 1-4.2333-4.2333v-55.033a4.2333 4.2333 135 0 1 4.2333-4.2333z" fill="#75284b"/>
   <path d="m76.729 87.313h45.508a4.2333 4.2333 45 0 1 4.2333 4.2333v55.033a4.2333 4.2333 135 0 1-4.2333 4.2333h-45.508a4.2333 4.2333 45 0 1-4.2333-4.2333v-55.033a4.2333 4.2333 135 0 1 4.2333-4.2333z" fill="#ffcab2"/>
   <path d="m87.312 95.25h45.508a4.2333 4.2333 45 0 1 4.2333 4.2333v55.033a4.2333 4.2333 135 0 1-4.2333 4.2333h-45.508a4.2333 4.2333 45 0 1-4.2333-4.2333v-55.033a4.2333 4.2333 135 0 1 4.2333-4.2333z" fill="#fffafa"/>
  </g>
  <g fill="#c2c5ff">
   <path x="89.958328" y="109.08965" width="9.2604198" height="41.722855" d="m91.81 109.09h5.5563a1.8521 1.8521 45 0 1 1.8521 1.8521v38.019a1.8521 1.8521 135 0 1-1.8521 1.8521h-5.5563a1.8521 1.8521 45 0 1-1.8521-1.8521v-38.019a1.8521 1.8521 135 0 1 1.8521-1.8521z"/>
   <path x="100.54166" y="119.06251" width="9.2604198" height="31.749996" d="m102.39 119.06h5.5562a1.8521 1.8521 45 0 1 1.8521 1.8521v28.046a1.8521 1.8521 135 0 1-1.8521 1.8521h-5.5562a1.8521 1.8521 45 0 1-1.8521-1.8521v-28.046a1.8521 1.8521 135 0 1 1.8521-1.8521z"/>
   <path x="111.125" y="107.15626" width="9.2604198" height="43.656246" d="m112.98 107.16h5.5563a1.8521 1.8521 45 0 1 1.8521 1.8521v39.952a1.8521 1.8521 135 0 1-1.8521 1.8521h-5.5563a1.8521 1.8521 45 0 1-1.8521-1.8521v-39.952a1.8521 1.8521 135 0 1 1.8521-1.8521z"/>
   <path x="121.70833" y="121.70835" width="9.2604198" height="29.104162" d="m123.56 121.71h5.5562a1.8521 1.8521 45 0 1 1.8521 1.8521v25.4a1.8521 1.8521 135 0 1-1.8521 1.8521h-5.5562a1.8521 1.8521 45 0 1-1.8521-1.8521v-25.4a1.8521 1.8521 135 0 1 1.8521-1.8521z"/>
  </g>
  <circle cx="6.9263" cy="108.06" r="5.2917" fill="#ffcab2" stroke-width="0"/>
  <circle cx="17.485" cy="87.431" r="5.2917" fill="#a781ff" stroke-width="0"/>
  <g>
   <g stroke-width="0">
    <circle cx="27.794" cy="87.522" r="5.2917" fill="#6e429d"/>
    <circle cx="27.885" cy="97.752" r="5.2917" fill="#d559a1"/>
    <circle cx="-2.6396" cy="76.532" r="5.2917" fill="#29b17c"/>
    <circle cx="-3.1505" cy="87.26" r="5.2917" fill="#bae53d"/>
    <circle cx="28.014" cy="108.41" r="5.2917" fill="#d45e5e"/>
    <circle cx="17.589" cy="108.24" r="5.2917" fill="#ffc67f"/>
    <circle cx="7.7113" cy="76.374" r="5.2917" fill="#5976ff"/>
    <circle cx="8.2222" cy="55.768" r="5.2917" fill="#2a2183"/>
    <circle cx="7.1587" cy="97.486" r="5.2917" fill="#fffafa"/>
    <circle cx="7.0798" cy="86.928" r="5.2917" fill="#c2c5ff"/>
    <circle cx="8.0892" cy="65.907" r="5.2917" fill="#242f91"/>
    <circle cx="263.91" cy="122.15" r="48.948" fill="#2a2183"/>
    <circle cx="259.07" cy="120.04" r="48.948" fill="#5976ff"/>
   </g>
   <path d="m235.49 86.466h12.7a5.8734 5.8734 35.783 0 1 5.572 4.0161 5.8044 5.8044 35.29 0 0 5.5405 3.9214h33.867a4.2333 4.2333 45 0 1 4.2333 4.2333v44.45a4.2333 4.2333 135 0 1-4.2333 4.2333l-57.679 1e-5a4.2333 4.2333 45 0 1-4.2333-4.2333v-52.388a4.2333 4.2333 135 0 1 4.2333-4.2333z" fill="#242f91"/>
   <path d="m231.79 83.82h12.7a5.8734 5.8734 35.783 0 1 5.572 4.0161 5.8044 5.8044 35.29 0 0 5.5405 3.9214h33.867a4.2333 4.2333 45 0 1 4.2333 4.2333v44.45a4.2333 4.2333 135 0 1-4.2333 4.2333l-57.679 1e-5a4.2333 4.2333 45 0 1-4.2333-4.2333v-52.388a4.2333 4.2333 135 0 1 4.2333-4.2333z" fill="#ffc67f"/>
   <path d="m238.14 97.049h36.513a4.2333 4.2333 45 0 1 4.2333 4.2333v44.45a4.2333 4.2333 135 0 1-4.2333 4.2333h-36.513a4.2333 4.2333 45 0 1-4.2333-4.2333v-44.45a4.2333 4.2333 135 0 1 4.2333-4.2333z" fill="#d7e2ff"/>
   <path d="m243.43 99.695h36.512a4.2333 4.2333 45 0 1 4.2333 4.2333v44.45a4.2333 4.2333 135 0 1-4.2333 4.2333h-36.512a4.2333 4.2333 45 0 1-4.2333-4.2333v-44.45a4.2333 4.2333 135 0 1 4.2333-4.2333z" fill="#a781ff"/>
   <path d="m248.72 102.34h36.513a4.2333 4.2333 45 0 1 4.2333 4.2333v44.45a4.2333 4.2333 135 0 1-4.2333 4.2333h-36.513a4.2333 4.2333 45 0 1-4.2333-4.2333v-44.45a4.2333 4.2333 135 0 1 4.2333-4.2333z" fill="#fffafa"/>
  </g>
  <g fill="#c2c5ff">
   <path x="251.36781" y="110.27861" width="31.75" height="8.5479593" d="m253.22 110.28h28.046a1.8521 1.8521 45 0 1 1.8521 1.8521v4.8438a1.8521 1.8521 135 0 1-1.8521 1.8521h-28.046a1.8521 1.8521 45 0 1-1.8521-1.8521v-4.8438a1.8521 1.8521 135 0 1 1.8521-1.8521z"/>
   <path x="251.36781" y="124.52518" width="31.75" height="8.5479593" d="m253.22 124.53h28.046a1.8521 1.8521 45 0 1 1.8521 1.8521v4.8438a1.8521 1.8521 135 0 1-1.8521 1.8521h-28.046a1.8521 1.8521 45 0 1-1.8521-1.8521v-4.8438a1.8521 1.8521 135 0 1 1.8521-1.8521z"/>
   <path x="251.36781" y="138.77179" width="18.520842" height="8.5479593" d="m253.22 138.77h14.817a1.8521 1.8521 45 0 1 1.8521 1.8521v4.8438a1.8521 1.8521 135 0 1-1.8521 1.8521h-14.817a1.8521 1.8521 45 0 1-1.8521-1.8521v-4.8438a1.8521 1.8521 135 0 1 1.8521-1.8521z"/>
  </g>
  <g>
   <path x="272.53448" y="136.73692" width="10.583339" height="10.582826" d="m278.09 136.74a5.2983 5.2983 47.862 0 1 5.0271 5.5562 5.298 5.298 137.87 0 1-5.5562 5.0266 5.2983 5.2983 47.862 0 1-5.0271-5.5562 5.298 5.298 137.87 0 1 5.5562-5.0266z" fill="#ffcab2"/>
   <circle cx="263.11" cy="17.71" r="48.948" fill="#2a2183" stroke-width="0"/>
   <circle cx="258.26" cy="15.6" r="48.948" fill="#ffc67f" stroke-width="0"/>
   <path d="m255.21-17.44h13.758a1.4286 1.4286 68.909 0 1 0.95929 2.4873l-1.6742 1.5171a7.3132 7.3132 106.64 0 0-2.1684 7.2551l2.8307 10.915a21.722 21.722 63.946 0 0 3.809 7.7912l18.35 23.855a7.3139 7.3139 102.93 0 1-2.5263 11.001 14.119 14.119 168.23 0 1-6.3513 1.3235h-42.862a12.234 12.234 16.845 0 1-6.7862-2.0547l-1.7734-1.1823a3.4615 3.4615 80.629 0 1-0.82358-4.9907l21.941-28.524a15.881 15.881 114.44 0 0 2.9849-6.5682l2.5158-12.579a6.9213 6.9213 73.155 0 0-1.8928-6.2515l-1.3761-1.3761a1.5343 1.5343 112.5 0 1 1.0849-2.6192z" fill="#b87c52" style="paint-order:stroke fill markers"/>
   <path d="m251.33-17.364h13.758a1.5343 1.5343 67.5 0 1 1.0849 2.6192l-1.3761 1.3761a6.9213 6.9213 106.85 0 0-1.8928 6.2515l1.6577 8.2884a34.642 34.642 65.561 0 0 6.5111 14.328l16.605 21.587a6.6603 6.6603 102.93 0 1-2.3005 10.018l-0.0432 0.02161a15.691 15.691 166.72 0 1-7.0173 1.6566h-42.862a12.234 12.234 16.845 0 1-6.7862-2.0547 5.8915 5.8915 85.014 0 1-0.74817-8.5764l20.093-26.12a15.881 15.881 114.44 0 0 2.9849-6.5682l2.5158-12.579a6.9213 6.9213 73.155 0 0-1.8928-6.2515l-1.3761-1.3761a1.5343 1.5343 112.5 0 1 1.0849-2.6192z" fill="#5976ff" style="paint-order:stroke fill markers"/>
  </g>
  <g fill="#fffafa">
   <path d="m246.28 28.911 1.3761 1.3761a3.7042 3.7042 2.1655e-5 0 0 5.2385 2e-6l7.9907-7.9907a4.8497 4.8497 172.37 0 1 5.8354-0.78146l2.8282 1.6161a16.906 16.906 42.104 0 1 5.3691 4.852l8.9232 12.492a1.9062 1.9062 117.23 0 1-1.5512 3.0142h-48.154a1.8239 1.8239 63.784 0 1-1.4457-2.936l8.7122-11.326a3.2524 3.2524 176.28 0 1 4.8777-0.31677z"/>
   <circle cx="250.73" cy="22.253" r="5.1806"/>
   <circle cx="257.81" cy="14.024" r="3.2221"/>
  </g>
 </g>
</svg>
