<?xml version="1.0" encoding="UTF-8"?>
<!-- Created with Inkscape (http://www.inkscape.org/) -->
<svg width="102.74mm" height="100.01mm" version="1.1" viewBox="0 0 102.74 100.01" xmlns="http://www.w3.org/2000/svg">
 <g transform="translate(-56.938 -73.974)">
  <circle cx="110.73" cy="125.03" r="48.948" fill="#2a2183" stroke-width="0"/>
  <circle cx="105.89" cy="122.92" r="48.948" fill="#ffc67f" stroke-width="0"/>
  <path d="m102.84 89.882h13.758a1.4286 1.4286 68.909 0 1 0.95929 2.4873l-1.6742 1.5171a7.3132 7.3132 106.64 0 0-2.1684 7.2551l2.8307 10.915a21.722 21.722 63.946 0 0 3.809 7.7912l18.35 23.855a7.3139 7.3139 102.93 0 1-2.5263 11.001 14.119 14.119 168.23 0 1-6.3513 1.3236h-42.862a12.234 12.234 16.845 0 1-6.7862-2.0547l-1.7734-1.1823a3.4615 3.4615 80.629 0 1-0.82358-4.9907l21.941-28.524a15.881 15.881 114.44 0 0 2.9849-6.5682l2.5158-12.579a6.9213 6.9213 73.155 0 0-1.8928-6.2515l-1.3761-1.3761a1.5343 1.5343 112.5 0 1 1.0849-2.6192z" fill="#b87c52" style="paint-order:stroke fill markers"/>
  <path d="m98.954 89.958h13.758a1.5343 1.5343 67.5 0 1 1.0849 2.6192l-1.3761 1.3761a6.9213 6.9213 106.85 0 0-1.8928 6.2515l1.6577 8.2884a34.642 34.642 65.561 0 0 6.5111 14.328l16.605 21.587a6.6603 6.6603 102.93 0 1-2.3005 10.018l-0.0432 0.0216a15.691 15.691 166.72 0 1-7.0173 1.6566h-42.863a12.234 12.234 16.845 0 1-6.7862-2.0547 5.8915 5.8915 85.014 0 1-0.74817-8.5764l20.093-26.12a15.881 15.881 114.44 0 0 2.9849-6.5682l2.5159-12.579a6.9213 6.9213 73.155 0 0-1.8928-6.2515l-1.3761-1.3761a1.5343 1.5343 112.5 0 1 1.0849-2.6192z" fill="#5976ff" style="paint-order:stroke fill markers"/>
  <g fill="#fffafa">
   <path d="m93.9 136.23a6.1504 6.1504 175.51 0 0 8.6713-0.6806l5.1884-5.1884a6.2301 6.2301 172.37 0 1 7.4964-1.0039 28.572 28.572 42.811 0 1 8.9725 8.3118l7.2326 10.126a1.9062 1.9062 117.23 0 1-1.5512 3.0142h-48.154a1.8239 1.8239 63.784 0 1-1.4457-2.936l8.7122-11.326a3.2524 3.2524 176.28 0 1 4.8777-0.31677z"/>
   <circle cx="98.348" cy="129.57" r="5.1806"/>
   <circle cx="105.43" cy="121.35" r="3.2221"/>
  </g>
 </g>
 <g transform="translate(-56.938 -73.974)" display="none">
  <circle cx="6.9263" cy="108.06" r="5.2917" display="inline" fill="#ffcab2" stroke-width="0"/>
  <circle cx="17.485" cy="87.431" r="5.2917" display="inline" fill="#a781ff" stroke-width="0"/>
  <g>
   <g stroke-width="0">
    <circle cx="27.794" cy="87.522" r="5.2917" display="inline" fill="#6e429d"/>
    <circle cx="27.885" cy="97.752" r="5.2917" display="inline" fill="#d559a1"/>
    <circle cx="-2.6396" cy="76.532" r="5.2917" display="inline" fill="#29b17c"/>
    <circle cx="-3.1505" cy="87.26" r="5.2917" display="inline" fill="#bae53d"/>
    <circle cx="28.014" cy="108.41" r="5.2917" display="inline" fill="#d45e5e"/>
    <circle cx="17.589" cy="108.24" r="5.2917" display="inline" fill="#ffc67f"/>
    <circle cx="7.7113" cy="76.374" r="5.2917" display="inline" fill="#5976ff"/>
    <circle cx="8.2222" cy="55.768" r="5.2917" display="inline" fill="#2a2183"/>
    <circle cx="7.1587" cy="97.486" r="5.2917" display="inline" fill="#fffafa"/>
    <circle cx="7.0798" cy="86.928" r="5.2917" display="inline" fill="#c2c5ff"/>
    <circle cx="8.0892" cy="65.907" r="5.2917" display="inline" fill="#242f91"/>
    <circle cx="263.91" cy="122.15" r="48.948" display="inline" fill="#2a2183"/>
    <circle cx="259.07" cy="120.04" r="48.948" display="inline" fill="#5976ff"/>
   </g>
   <path d="m235.49 86.466h12.7a5.8734 5.8734 35.783 0 1 5.572 4.0161 5.8044 5.8044 35.29 0 0 5.5405 3.9214h33.867a4.2333 4.2333 45 0 1 4.2333 4.2333v44.45a4.2333 4.2333 135 0 1-4.2333 4.2333l-57.679 1e-5a4.2333 4.2333 45 0 1-4.2333-4.2333v-52.388a4.2333 4.2333 135 0 1 4.2333-4.2333z" display="inline" fill="#242f91"/>
   <path d="m231.79 83.82h12.7a5.8734 5.8734 35.783 0 1 5.572 4.0161 5.8044 5.8044 35.29 0 0 5.5405 3.9214h33.867a4.2333 4.2333 45 0 1 4.2333 4.2333v44.45a4.2333 4.2333 135 0 1-4.2333 4.2333l-57.679 1e-5a4.2333 4.2333 45 0 1-4.2333-4.2333v-52.388a4.2333 4.2333 135 0 1 4.2333-4.2333z" display="inline" fill="#ffc67f"/>
   <path d="m238.14 97.049h36.513a4.2333 4.2333 45 0 1 4.2333 4.2333v44.45a4.2333 4.2333 135 0 1-4.2333 4.2333h-36.513a4.2333 4.2333 45 0 1-4.2333-4.2333v-44.45a4.2333 4.2333 135 0 1 4.2333-4.2333z" display="inline" fill="#d7e2ff"/>
   <path d="m243.43 99.695h36.512a4.2333 4.2333 45 0 1 4.2333 4.2333v44.45a4.2333 4.2333 135 0 1-4.2333 4.2333h-36.512a4.2333 4.2333 45 0 1-4.2333-4.2333v-44.45a4.2333 4.2333 135 0 1 4.2333-4.2333z" display="inline" fill="#a781ff"/>
   <path d="m248.72 102.34h36.513a4.2333 4.2333 45 0 1 4.2333 4.2333v44.45a4.2333 4.2333 135 0 1-4.2333 4.2333h-36.513a4.2333 4.2333 45 0 1-4.2333-4.2333v-44.45a4.2333 4.2333 135 0 1 4.2333-4.2333z" display="inline" fill="#fffafa"/>
  </g>
  <g fill="#c2c5ff">
   <path x="251.36781" y="110.27861" width="31.75" height="8.5479593" d="m253.22 110.28h28.046a1.8521 1.8521 45 0 1 1.8521 1.8521v4.8438a1.8521 1.8521 135 0 1-1.8521 1.8521h-28.046a1.8521 1.8521 45 0 1-1.8521-1.8521v-4.8438a1.8521 1.8521 135 0 1 1.8521-1.8521z" display="inline"/>
   <path x="251.36781" y="124.52518" width="31.75" height="8.5479593" d="m253.22 124.53h28.046a1.8521 1.8521 45 0 1 1.8521 1.8521v4.8438a1.8521 1.8521 135 0 1-1.8521 1.8521h-28.046a1.8521 1.8521 45 0 1-1.8521-1.8521v-4.8438a1.8521 1.8521 135 0 1 1.8521-1.8521z" display="inline"/>
   <path x="251.36781" y="138.77179" width="18.520842" height="8.5479593" d="m253.22 138.77h14.817a1.8521 1.8521 45 0 1 1.8521 1.8521v4.8438a1.8521 1.8521 135 0 1-1.8521 1.8521h-14.817a1.8521 1.8521 45 0 1-1.8521-1.8521v-4.8438a1.8521 1.8521 135 0 1 1.8521-1.8521z" display="inline"/>
  </g>
  <path x="272.53448" y="136.73692" width="10.583339" height="10.582826" d="m278.09 136.74a5.2983 5.2983 47.862 0 1 5.0271 5.5562 5.298 5.298 137.87 0 1-5.5562 5.0266 5.2983 5.2983 47.862 0 1-5.0271-5.5562 5.298 5.298 137.87 0 1 5.5562-5.0266z" display="inline" fill="#ffcab2"/>
 </g>
</svg>
